<?xml version="1.0" standalone="no"?>
<!DOCTYPE svg PUBLIC "-//W3C//DTD SVG 20010904//EN"
 "http://www.w3.org/TR/2001/REC-SVG-20010904/DTD/svg10.dtd">
<svg version="1.0" xmlns="http://www.w3.org/2000/svg"
 width="101.000000pt" height="41.000000pt" viewBox="0 0 101.000000 41.000000"
 preserveAspectRatio="xMidYMid meet">
<metadata>
Created by potrace 1.15, written by Peter Selinger 2001-2017
</metadata>
<g transform="translate(0.000000,41.000000) scale(0.100000,-0.100000)"
fill="#000000" stroke="none">
<path d="M244 399 c-16 -5 -39 -17 -50 -27 -19 -19 -20 -19 -47 4 -23 19 -40
24 -88 24 l-59 0 0 -125 0 -125 35 0 c35 0 35 0 35 45 0 40 3 45 23 45 12 0
28 4 36 9 11 7 19 0 32 -29 42 -94 173 -107 238 -24 l21 27 0 -37 c0 -35 1
-36 35 -36 34 0 35 1 35 43 l0 42 26 -42 c22 -37 30 -43 60 -43 19 0 34 3 34
8 0 4 -13 26 -29 50 l-29 44 24 23 c13 13 24 36 24 50 0 18 5 25 20 25 19 0
20 -7 20 -100 l0 -100 30 0 30 0 0 100 0 100 30 0 c25 0 30 4 30 25 0 25 -1
25 -90 25 -55 0 -90 -4 -90 -10 0 -7 -6 -7 -19 0 -11 5 -47 10 -80 10 l-61 0
0 -42 -1 -43 -15 27 c-25 47 -102 74 -160 57z m91 -74 c67 -66 -23 -165 -96
-107 -30 25 -30 74 1 107 30 32 64 32 95 0z"/>
<path d="M835 399 c-112 -32 -127 -193 -22 -242 65 -31 133 -16 176 39 26 33
29 118 5 152 -30 43 -106 67 -159 51z m90 -74 c30 -30 32 -64 4 -99 -41 -53
-119 -21 -119 48 0 25 7 40 26 55 35 27 59 26 89 -4z"/>
</g>
</svg>
